<svg width="1024" height="1024" viewBox="0 0 1024 1024" fill="none" xmlns="http://www.w3.org/2000/svg">
<g clip-path="url(#clip0_13_2)">
<rect width="1024" height="1024" fill="#053C89"/>
<rect x="136" y="41" width="751" height="942" rx="41" fill="white" stroke="#BDBDBD" stroke-width="2"/>
<rect x="231" y="13" width="109" height="997" rx="19" fill="url(#paint0_linear_13_2)"/>
<path d="M231 32C231 21.5066 239.507 13 250 13H321C331.493 13 340 21.5066 340 32V36H231V32Z" fill="url(#paint1_linear_13_2)"/>
<path d="M231 991C231 1001.49 239.507 1010 250 1010H321C331.493 1010 340 1001.49 340 991V987H231V991Z" fill="url(#paint2_linear_13_2)"/>
<rect x="416" y="712" width="215" height="72" rx="36" fill="black"/>
<rect x="416" y="484" width="300" height="71" rx="35.5" fill="black"/>
<rect x="416" y="255" width="401" height="71" rx="35.5" fill="black"/>
</g>
<defs>
<linearGradient id="paint0_linear_13_2" x1="285.5" y1="13" x2="285.5" y2="1010" gradientUnits="userSpaceOnUse">
<stop stop-color="#378EDD"/>
<stop offset="1" stop-color="#1E4C77"/>
</linearGradient>
<linearGradient id="paint1_linear_13_2" x1="285.5" y1="13" x2="285.5" y2="36" gradientUnits="userSpaceOnUse">
<stop stop-color="#9BCEFC"/>
<stop offset="1" stop-color="#368CDA"/>
</linearGradient>
<linearGradient id="paint2_linear_13_2" x1="285.5" y1="987" x2="285.5" y2="1010" gradientUnits="userSpaceOnUse">
<stop stop-color="#1E4F7A"/>
<stop offset="1" stop-color="#111D28"/>
</linearGradient>
<clipPath id="clip0_13_2">
<rect width="1024" height="1024" rx="120" fill="white"/>
</clipPath>
</defs>
</svg>
